<svg xmlns="http://www.w3.org/2000/svg" width="260" height="360" viewBox="0 0 260 360"><g fill="none" fill-rule="evenodd"><path fill="#1E1202" d="M31.59 176.21S0 139.63 0 108.661C0-40.793 252.118-13.416 252.118 56.15c0 13.47-14.97 26.256-14.97 26.256s20.611 11.67 20.611 51.39c0 25.808-19.488 42.413-19.488 42.413"/><path fill="#FFE6E1" d="M237.071 175.298l-.004.045c-1.335-40.44-10.314-75.607-23.612-87.55-32.719-29.389-125.35-29.389-158.07 0-13.3 11.945-22.28 47.12-23.613 87.568l-.005-.063c-43.758-28.785-15.048 80.726 5.255 68.388l-.006-.077c6.347 32.211 18.581 61.601 38.356 79.363C97.484 342.832 96.86 360 134.42 360c37.56 0 36.936-17.167 59.047-37.027 19.772-17.759 32.005-47.142 38.354-79.348l-.005.062c20.302 12.338 49.013-97.173 5.255-68.388"/><path fill="#000" d="M197.166 227.395c-34.607 0-43.866-30.162-43.866-44.846 0-19.153 17.474-23.739 43.718-23.739 20.847 0 37.407 4.392 37.407 23.545 0 19.154-7.808 45.04-37.26 45.04m-125.492 0c-29.451 0-37.26-25.886-37.26-45.04 0-19.153 16.56-23.545 37.408-23.545 26.244 0 43.718 4.586 43.718 23.739 0 14.684-9.26 44.846-43.866 44.846m180.17-64.825c-25.25-4.178-26.764-10.677-55.274-10.677-36.034 0-39.61 8.124-45.253 9.561-3.838.977-8.345-1.779-16.897-1.779-8.55 0-13.058 2.756-16.897 1.779-5.643-1.437-9.217-9.561-45.252-9.561-28.51 0-30.024 6.499-55.274 10.677-.466.077-.458 8.02 0 8.478.479.479 1.85.022 5.678 2.873 5.028 3.745 3.522 27.743 15.67 43.927 9.008 11.997 22.297 15.392 31.84 15.392 12.519 0 33.04-1.804 46.435-25.889 10.472-18.831 9.42-27.529 9.42-27.529s-7.49-10.809 8.38-10.809c15.872 0 8.38 10.809 8.38 10.809s-1.05 8.698 9.42 27.529c13.395 24.085 33.918 25.889 46.437 25.889 9.543 0 22.83-3.395 31.838-15.392 12.15-16.184 10.644-40.182 15.672-43.927 3.827-2.851 5.198-2.394 5.677-2.873.458-.458.466-8.401 0-8.478"/></g></svg>
