<svg xmlns="http://www.w3.org/2000/svg" width="512" height="512" viewBox="0 0 512 512"><path fill="#f68d2e" d="M253.7 33.6c-.1.1-6.8.4-14.8.8-8.1.4-15.7.9-17 1.1s-5.1.6-8.4 1c-21.1 2.1-47.6 7.9-69.1 15-13.4 4.4-38.2 15-43.4 18.5-1.4.9-3.2 1.9-4.2 2.3-3 1.1-19.2 11.9-27.3 18.2-8.8 6.8-21.4 19.1-27.3 26.4-2 2.5-4.3 5.3-5.1 6.1-5.2 5.4-18.7 29.3-23 40.5-1.3 3.3-2.7 6.9-3.2 8-1 2.3-5.5 18.5-6.4 23-3.2 16.2-3.9 23.9-4 42 0 20.8.6 24.5 6.7 43 4.6 14 15 35.6 24.4 50.5 3.6 5.8 6.6 10.9 6.7 11.4.1.6-1.1 1.2-2.8 1.6l-3 .5v15.8l4.5 2.4c9 4.8 10 6.8 14.6 30.1 5.4 27.5 12.5 45.9 22.4 58.4 15 18.8 36.4 28.3 63 28 43.9-.6 71.4-19.1 91.4-61.3 6-12.7 10.3-25.4 11.2-33.2.4-2.9.8-5.3.9-5.5.2-.2-.5-2.2-1.6-4.5-5.4-11.9 2.1-18.6 19.6-17.5 13.3.9 18.3 5.4 15.5 14.1-2.4 7.2-1.7 17 1.9 27.7 4.1 12 12.7 29.8 19.2 39.4 14.3 21.5 36.5 35.9 59.9 39.1 1.4.2 4.3.6 6.5.9 6.1.9 21.3 1 27.5.2 25.3-3.4 46.5-18.5 57.7-41.1 6.2-12.5 9.4-23 14.3-47.5 4.1-20.3 5.4-23 13-26.7l5.9-2.8-.1-8.2c-.2-7.4-.4-8.3-2.1-8.3-1 0-1.7-.3-1.5-.8.2-.4 2-4.1 4-8.2 7.9-16.4 10.7-28.8 10.6-47.9 0-25.5-4.6-46.9-14.1-65.6-4.5-9-12.7-19.9-18.8-25-2.6-2.2-4.8-4.3-4.8-4.6-.1-.4 2.2-3.1 5-6 17-17.8 24.3-35.7 21.6-52.6-4.9-30.6-36.8-58.6-87.7-77.1-9.2-3.4-31.2-9.9-36.3-10.7-1.8-.3-4.5-1-6.2-1.5-6.7-2-36-6.4-51-7.6-14.3-1.1-44.1-2.3-44.8-1.8zM287 160.4c40.7 3.5 78.3 14 103 28.9 21 12.7 31.6 27.1 41.8 56.8 4.8 13.9 10.8 38 12.6 50.4.3 2.2.8 5.1 1.1 6.5 1.3 7.2 1.9 11.8 2.9 23 .4 4.1.9 8.1 1.1 8.7.6 1.8-.7 1.6-11-1.6-12.1-3.9-23.8-7-29.4-7.7-2.5-.3-7.3-.9-10.6-1.4-5.8-.8-50-.6-56 .3-1.6.2-5.5.8-8.5 1.2-14.1 1.9-26.6 5.7-36.1 11.1-3.3 1.8-7.7 3.8-9.7 4.4-3.9 1-4.9.9-16.9-1.5-9.5-2-20-1.9-30.9.2-13.6 2.5-15.6 2.2-26.9-3.5-10.3-5.2-21.2-8.8-30-9.8-2.7-.4-5.3-.8-5.6-1-1.7-1-21-1.9-39.4-1.9-18.6 0-30.8.7-35.5 2-.8.2-3.1.6-5 .9-3.6.5-25.5 6.7-30.4 8.6-4.8 1.8-4.9 1.5-4.2-6.8.3-4.2.8-9.1 1.1-10.7.3-1.7 1.1-7.5 2-13 .8-5.5 1.7-11.1 2-12.5.2-1.4 1-5 1.6-8 5.1-25.9 14-51.7 23.2-67.2 3.5-6 13-16.7 17.8-20.3 9.9-7.4 26.1-15.7 40.4-20.8 10.1-3.7 29.3-8.9 37.5-10.3 2.5-.4 4.7-.8 5-.9 1.5-.4 9.1-1.5 13-2 2.5-.3 5.6-.8 7-1s7-.7 12.5-1.1c5.5-.3 10.1-.8 10.3-.9.4-.4 44.4.4 50.2.9zm-125.8 177c15.3 1.4 28.8 4.6 37.1 8.7 5.9 3 15.7 11.2 15.7 13.2 0 .6.6 1.8 1.3 2.6 3.7 4.4 5.4 21 3.5 33.1-4 24.2-17 46-34.6 58.2-6.2 4.2-17.5 9.3-25.7 11.3-7.4 1.9-26.9 2.6-35.6 1.3-34.4-5.1-56.7-37.7-57-83.5-.2-28.3 16.9-42.4 55.1-45.2 10.2-.7 30.1-.6 40.2.3zm234.3 0c2.2.3 6.3.9 9 1.2 2.8.4 5.3.8 5.8 1.1.4.2 1.9.6 3.3.9 1.5.3 5.5 1.8 9.1 3.4 16.8 7.6 23.7 19.1 23.5 39.2-.2 37.2-16.3 67.5-41.8 78.3-6.7 2.8-20.1 5.3-28.7 5.3-41 0-69.4-22.4-80.7-63.8-3.3-12.2-3.3-29 0-37.5 2.7-6.9 10.2-15 17-18.5 10.3-5.2 24.8-8.7 41-9.7 5.2-.3 9.6-.7 9.7-.8.6-.4 29 .4 32.8.9z"/></svg>
