<svg xmlns="http://www.w3.org/2000/svg" height="18" width="18" viewBox="0 0 18 18">
	<path
		d="M14.271 2.494H12.78a.933.933 0 010-1.864h3.208c.409 0 .779.163 1.05.428l.018.018c.267.27.431.642.431 1.052v3.209a.932.932 0 01-1.864 0V3.779L11.538 7.77a.933.933 0 01-1.303-1.334l4.036-3.942zm-5.28-.007l-1.972.02c-1.448.016-2.598.423-3.446 1.287-.833.852-1.223 2.017-1.208 3.457l.037 3.615c.016 1.447.429 2.598 1.279 3.43.866.847 2.025 1.232 3.473 1.217l3.827-.04c1.446-.015 2.602-.42 3.433-1.282l.006-.006c.85-.854 1.231-2.011 1.215-3.455l-.017-1.729a.932.932 0 011.864-.019l.017 1.729c.022 2.011-.574 3.599-1.751 4.782-1.154 1.195-2.737 1.824-4.748 1.844l-3.827.04c-2.008.021-3.595-.573-4.796-1.748C1.196 14.472.559 12.896.538 10.886L.5 7.27c-.02-2 .584-3.597 1.74-4.78C3.417 1.29 4.991.664 6.999.643l1.973-.02a.932.932 0 01.019 1.864z" />
</svg>
